<svg width="78" height="12" viewBox="0 0 78 12" fill="none" xmlns="http://www.w3.org/2000/svg">
<path d="M4.34 11.098C3.65867 11.098 3.04267 10.9813 2.492 10.748C1.95067 10.5147 1.52133 10.1787 1.204 9.74C0.886667 9.30133 0.723333 8.78333 0.714 8.186H2.814C2.842 8.58733 2.982 8.90467 3.234 9.138C3.49533 9.37133 3.85 9.488 4.298 9.488C4.75533 9.488 5.11467 9.38067 5.376 9.166C5.63733 8.942 5.768 8.65267 5.768 8.298C5.768 8.00867 5.67933 7.77067 5.502 7.584C5.32467 7.39733 5.10067 7.25267 4.83 7.15C4.56867 7.038 4.20467 6.91667 3.738 6.786C3.10333 6.59933 2.58533 6.41733 2.184 6.24C1.792 6.05333 1.45133 5.778 1.162 5.414C0.882 5.04067 0.742 4.546 0.742 3.93C0.742 3.35133 0.886667 2.84733 1.176 2.418C1.46533 1.98867 1.87133 1.662 2.394 1.438C2.91667 1.20467 3.514 1.088 4.186 1.088C5.194 1.088 6.01067 1.33533 6.636 1.83C7.27067 2.31533 7.62067 2.99667 7.686 3.874H5.53C5.51133 3.538 5.36667 3.26267 5.096 3.048C4.83467 2.824 4.48467 2.712 4.046 2.712C3.66333 2.712 3.35533 2.81 3.122 3.006C2.898 3.202 2.786 3.48667 2.786 3.86C2.786 4.12133 2.87 4.34067 3.038 4.518C3.21533 4.686 3.43 4.826 3.682 4.938C3.94333 5.04067 4.30733 5.162 4.774 5.302C5.40867 5.48867 5.92667 5.67533 6.328 5.862C6.72933 6.04867 7.07467 6.32867 7.364 6.702C7.65333 7.07533 7.798 7.56533 7.798 8.172C7.798 8.69467 7.66267 9.18 7.392 9.628C7.12133 10.076 6.72467 10.4353 6.202 10.706C5.67933 10.9673 5.05867 11.098 4.34 11.098ZM8.99325 7.094C8.99325 6.31 9.14725 5.61467 9.45525 5.008C9.77258 4.40133 10.1973 3.93467 10.7293 3.608C11.2706 3.28133 11.8726 3.118 12.5353 3.118C13.1139 3.118 13.6179 3.23467 14.0473 3.468C14.4859 3.70133 14.8359 3.99533 15.0973 4.35V3.244H17.0713V11H15.0973V9.866C14.8453 10.23 14.4953 10.5333 14.0473 10.776C13.6086 11.0093 13.0999 11.126 12.5213 11.126C11.8679 11.126 11.2706 10.958 10.7293 10.622C10.1973 10.286 9.77258 9.81467 9.45525 9.208C9.14725 8.592 8.99325 7.88733 8.99325 7.094ZM15.0973 7.122C15.0973 6.646 15.0039 6.24 14.8173 5.904C14.6306 5.55867 14.3786 5.29733 14.0613 5.12C13.7439 4.93333 13.4033 4.84 13.0393 4.84C12.6753 4.84 12.3393 4.92867 12.0312 5.106C11.7233 5.28333 11.4713 5.54467 11.2753 5.89C11.0886 6.226 10.9953 6.62733 10.9953 7.094C10.9953 7.56067 11.0886 7.97133 11.2753 8.326C11.4713 8.67133 11.7233 8.93733 12.0312 9.124C12.3486 9.31067 12.6846 9.404 13.0393 9.404C13.4033 9.404 13.7439 9.31533 14.0613 9.138C14.3786 8.95133 14.6306 8.69 14.8173 8.354C15.0039 8.00867 15.0973 7.598 15.0973 7.122ZM23.2835 3.132C24.2075 3.132 24.9542 3.426 25.5235 4.014C26.0929 4.59267 26.3775 5.40467 26.3775 6.45V11H24.4175V6.716C24.4175 6.1 24.2635 5.62867 23.9555 5.302C23.6475 4.966 23.2275 4.798 22.6955 4.798C22.1542 4.798 21.7249 4.966 21.4075 5.302C21.0995 5.62867 20.9455 6.1 20.9455 6.716V11H18.9855V3.244H20.9455V4.21C21.2069 3.874 21.5382 3.61267 21.9395 3.426C22.3502 3.23 22.7982 3.132 23.2835 3.132ZM27.7374 7.122C27.7374 6.31933 27.9007 5.61933 28.2274 5.022C28.5541 4.41533 29.0067 3.94867 29.5854 3.622C30.1641 3.286 30.8267 3.118 31.5734 3.118C32.5347 3.118 33.3281 3.36067 33.9534 3.846C34.5881 4.322 35.0127 4.994 35.2274 5.862H33.1134C33.0014 5.526 32.8101 5.26467 32.5394 5.078C32.2781 4.882 31.9514 4.784 31.5594 4.784C30.9994 4.784 30.5561 4.98933 30.2294 5.4C29.9027 5.80133 29.7394 6.37533 29.7394 7.122C29.7394 7.85933 29.9027 8.43333 30.2294 8.844C30.5561 9.24533 30.9994 9.446 31.5594 9.446C32.3527 9.446 32.8707 9.09133 33.1134 8.382H35.2274C35.0127 9.222 34.5881 9.88933 33.9534 10.384C33.3187 10.8787 32.5254 11.126 31.5734 11.126C30.8267 11.126 30.1641 10.9627 29.5854 10.636C29.0067 10.3 28.5541 9.83333 28.2274 9.236C27.9007 8.62933 27.7374 7.92467 27.7374 7.122ZM43.9853 3.244V11H42.0113V10.02C41.7593 10.356 41.4279 10.622 41.0173 10.818C40.6159 11.0047 40.1773 11.098 39.7013 11.098C39.0946 11.098 38.5579 10.972 38.0913 10.72C37.6246 10.4587 37.2559 10.0807 36.9853 9.586C36.7239 9.082 36.5933 8.48467 36.5933 7.794V3.244H38.5533V7.514C38.5533 8.13 38.7073 8.606 39.0153 8.942C39.3233 9.26867 39.7433 9.432 40.2753 9.432C40.8166 9.432 41.2413 9.26867 41.5493 8.942C41.8573 8.606 42.0113 8.13 42.0113 7.514V3.244H43.9853ZM47.8791 0.64V11H45.9191V0.64H47.8791ZM49.3116 7.094C49.3116 6.31 49.4656 5.61467 49.7736 5.008C50.0909 4.40133 50.5156 3.93467 51.0476 3.608C51.5889 3.28133 52.1909 3.118 52.8536 3.118C53.4323 3.118 53.9363 3.23467 54.3656 3.468C54.8043 3.70133 55.1543 3.99533 55.4156 4.35V3.244H57.3896V11H55.4156V9.866C55.1636 10.23 54.8136 10.5333 54.3656 10.776C53.9269 11.0093 53.4183 11.126 52.8396 11.126C52.1863 11.126 51.5889 10.958 51.0476 10.622C50.5156 10.286 50.0909 9.81467 49.7736 9.208C49.4656 8.592 49.3116 7.88733 49.3116 7.094ZM55.4156 7.122C55.4156 6.646 55.3223 6.24 55.1356 5.904C54.9489 5.55867 54.6969 5.29733 54.3796 5.12C54.0623 4.93333 53.7216 4.84 53.3576 4.84C52.9936 4.84 52.6576 4.92867 52.3496 5.106C52.0416 5.28333 51.7896 5.54467 51.5936 5.89C51.4069 6.226 51.3136 6.62733 51.3136 7.094C51.3136 7.56067 51.4069 7.97133 51.5936 8.326C51.7896 8.67133 52.0416 8.93733 52.3496 9.124C52.6669 9.31067 53.0029 9.404 53.3576 9.404C53.7216 9.404 54.0623 9.31533 54.3796 9.138C54.6969 8.95133 54.9489 8.69 55.1356 8.354C55.3223 8.00867 55.4156 7.598 55.4156 7.122ZM61.5859 4.854V8.606C61.5859 8.86733 61.6466 9.05867 61.7679 9.18C61.8986 9.292 62.1132 9.348 62.4119 9.348H63.3219V11H62.0899C60.4379 11 59.6119 10.1973 59.6119 8.592V4.854H58.6879V3.244H59.6119V1.326H61.5859V3.244H63.3219V4.854H61.5859ZM68.1756 11.126C67.429 11.126 66.757 10.9627 66.1596 10.636C65.5623 10.3 65.091 9.82867 64.7456 9.222C64.4096 8.61533 64.2416 7.91533 64.2416 7.122C64.2416 6.32867 64.4143 5.62867 64.7596 5.022C65.1143 4.41533 65.595 3.94867 66.2016 3.622C66.8083 3.286 67.485 3.118 68.2316 3.118C68.9783 3.118 69.655 3.286 70.2616 3.622C70.8683 3.94867 71.3443 4.41533 71.6896 5.022C72.0443 5.62867 72.2216 6.32867 72.2216 7.122C72.2216 7.91533 72.0396 8.61533 71.6756 9.222C71.321 9.82867 70.8356 10.3 70.2196 10.636C69.613 10.9627 68.9316 11.126 68.1756 11.126ZM68.1756 9.418C68.5303 9.418 68.8616 9.334 69.1696 9.166C69.487 8.98867 69.739 8.72733 69.9256 8.382C70.1123 8.03667 70.2056 7.61667 70.2056 7.122C70.2056 6.38467 70.0096 5.82 69.6176 5.428C69.235 5.02667 68.7636 4.826 68.2036 4.826C67.6436 4.826 67.1723 5.02667 66.7896 5.428C66.4163 5.82 66.2296 6.38467 66.2296 7.122C66.2296 7.85933 66.4116 8.42867 66.7756 8.83C67.149 9.222 67.6156 9.418 68.1756 9.418ZM75.6194 4.448C75.8714 4.03733 76.198 3.71533 76.5994 3.482C77.01 3.24867 77.4767 3.132 77.9994 3.132V5.19H77.4814C76.8654 5.19 76.3987 5.33467 76.0814 5.624C75.7734 5.91333 75.6194 6.41733 75.6194 7.136V11H73.6594V3.244H75.6194V4.448Z" fill="#E4E4E4"/>
</svg>
